<?xml version="1.0" encoding="UTF-8"?>
<svg id="Layer_1" data-name="Layer 1" xmlns="http://www.w3.org/2000/svg" width="360" height="140" xmlns:xlink="http://www.w3.org/1999/xlink" viewBox="0 0 450 481">
    <g>
        <path fill="#4D8D89" opacity="1.000000" stroke="none" 
	d="
M655.000000,482.000000 
	C436.666718,482.000000 218.833405,482.000000 1.000088,482.000000 
	C1.000058,321.666748 1.000058,161.333466 1.000029,1.000152 
	C285.999878,1.000102 570.999756,1.000102 855.999756,1.000051 
	C855.999817,161.333191 855.999817,321.666382 855.999878,481.999786 
	C789.166687,482.000000 722.333313,482.000000 655.000000,482.000000 
M492.195465,372.813721 
	C492.195465,372.813721 492.181641,372.554718 492.576569,372.999176 
	C492.868988,373.267212 493.161438,373.535217 493.183014,373.759857 
	C493.183014,373.759857 493.226532,373.489044 493.592285,373.962433 
	C494.067627,374.307190 494.542969,374.651947 495.448456,375.156433 
	C495.731293,375.304138 495.937714,375.523651 496.434570,376.224579 
	C496.716858,376.459259 496.999115,376.693939 497.045258,376.912872 
	C497.045258,376.912872 497.061096,376.676697 497.513916,377.079620 
	C498.043518,377.355286 498.573120,377.630920 499.052002,377.946503 
	C499.052002,377.946503 499.053406,377.881958 499.460693,378.238068 
	C499.768402,378.429138 500.076111,378.620239 500.134766,378.798309 
	C500.134766,378.798309 500.147919,378.549225 500.612946,378.964661 
	C501.173370,379.219727 501.733795,379.474762 502.193878,379.734375 
	C502.193878,379.734375 502.189453,379.634033 502.541565,380.178497 
	C504.345917,380.762665 506.150238,381.346832 508.642975,381.970062 
	C509.075287,382.120483 509.507568,382.270935 510.416992,382.917816 
	C511.925690,383.512421 513.423340,384.587219 514.944885,384.622345 
	C523.655640,384.823273 532.373352,384.859589 541.085144,384.720978 
	C542.312561,384.701477 543.520020,383.417999 544.963867,382.863312 
	C544.963867,382.863312 544.820007,383.090393 545.150574,382.307678 
	C545.430115,380.684784 545.948059,379.062592 545.952759,377.438904 
	C546.009460,357.997437 546.036560,338.555481 545.921936,319.114532 
	C545.909790,317.058899 544.948120,315.008850 544.227905,313.153320 
	C544.227905,313.153320 543.971130,313.041473 543.225159,312.708832 
	C538.924805,312.487213 534.626343,312.136566 530.323608,312.071747 
	C522.248291,311.950012 521.917664,311.718475 521.915161,303.588379 
	C521.901917,261.180328 521.900940,218.772263 521.907593,176.364197 
	C521.908875,168.306427 522.310120,168.113068 530.350708,167.846252 
	C535.241577,167.683960 540.110840,166.871979 544.784302,166.283005 
	C544.784302,166.283005 544.853027,166.077484 545.197632,165.311142 
	C545.460999,163.687592 545.948303,162.064743 545.953308,160.440399 
	C546.008606,142.528656 546.024170,124.616524 545.938660,106.705025 
	C545.929443,104.773232 545.216492,102.844803 545.063354,100.998947 
	C545.063354,100.998947 544.979309,101.232368 544.463196,100.651871 
	C542.620544,100.103302 540.779846,99.084641 538.934937,99.077019 
	C513.278748,98.971100 487.621796,98.963562 461.965698,99.080093 
	C459.960693,99.089203 457.960663,100.201340 456.065369,100.906586 
	C456.065369,100.906586 455.959686,101.013680 455.524536,101.300888 
	C455.612885,103.211777 455.701233,105.122658 455.907745,107.762253 
	C455.867859,108.496986 455.827972,109.231728 455.403503,110.264740 
	C455.533081,111.186279 455.662659,112.107819 455.916962,113.955650 
	C455.876709,128.964203 455.836487,143.972763 455.306305,159.468689 
	C453.077576,165.363800 454.467194,167.732864 460.458374,167.869553 
	C467.266357,168.024918 474.078644,167.992203 480.980164,168.969513 
	C480.960419,228.314514 480.940674,287.659515 480.661346,347.704132 
	C481.834137,352.115936 483.006927,356.527771 484.288635,361.147736 
	C484.288635,361.147736 484.108032,361.297943 484.438354,361.870270 
	C484.679169,362.239929 484.920013,362.609589 485.078674,362.935394 
	C485.078674,362.935394 485.122589,362.853271 485.299988,363.425476 
	C485.623688,363.928833 485.947418,364.432190 486.148102,364.897919 
	C486.148102,364.897919 486.185791,364.774933 486.393372,365.351410 
	C486.753357,365.848541 487.113342,366.345703 487.316437,366.784485 
	C487.316437,366.784485 487.375000,366.627655 487.533081,367.206207 
	C488.030762,367.803406 488.528473,368.400635 489.451202,369.250153 
	C489.715546,369.468201 489.888000,369.743713 490.243652,370.578735 
	C490.662598,370.971497 491.081543,371.364258 491.239624,371.815521 
	C491.239624,371.815521 491.181244,371.554596 491.576050,371.998413 
	C491.868835,372.265533 492.161652,372.532623 492.195465,372.813721 
M105.544022,383.832733 
	C117.845589,383.866852 130.147156,383.901886 142.448746,383.922791 
	C142.582642,383.923035 142.716858,383.738892 143.245987,383.162537 
	C143.421112,383.052551 143.596252,382.942596 144.148361,382.127289 
	C144.434006,379.680359 144.963196,377.233978 144.968338,374.786438 
	C145.033875,343.579041 145.024261,312.371521 145.956909,281.018524 
	C161.485687,281.018524 177.014450,281.018524 192.891708,281.018524 
	C192.891708,267.675385 192.891708,254.979126 192.175705,241.893356 
	C190.059052,241.592651 187.944366,241.049011 185.825409,241.031860 
	C174.675613,240.941666 163.524689,241.008087 152.374298,240.972290 
	C145.509186,240.950256 145.021164,240.467163 145.016327,233.545013 
	C145.000900,211.410492 145.024033,189.275940 145.924347,166.979950 
	C148.699539,166.979950 151.474716,166.979950 155.038040,166.979950 
	C155.038040,188.511337 155.038040,209.498718 155.038040,230.537781 
	C168.070312,230.537781 180.303772,230.537781 192.923660,230.537781 
	C193.020645,228.632660 193.169922,227.018280 193.174194,225.403519 
	C193.203278,214.425690 193.222214,203.447739 193.206299,192.469879 
	C193.161942,161.867264 193.099045,131.264694 192.467896,100.204704 
	C190.563110,99.803574 188.659378,99.059151 186.753357,99.053230 
	C161.513763,98.974754 136.273697,98.962982 111.034302,99.069572 
	C109.009109,99.078133 106.988113,100.080658 104.783958,101.366707 
	C104.684692,101.602364 104.585434,101.838020 104.054527,102.637360 
	C103.706291,104.397812 103.054329,106.158112 103.053375,107.918747 
	C103.005005,197.598267 103.001114,287.277832 103.083580,376.957306 
	C103.085434,378.973969 104.135696,380.989655 104.939171,383.119995 
	C104.939171,383.119995 104.970848,383.385956 105.544022,383.832733 
M205.681717,383.811066 
	C218.305130,383.843719 230.928543,383.876343 243.168747,383.503540 
	C243.395721,383.001709 243.622681,382.499878 244.207336,381.254974 
	C244.471848,379.127197 244.966782,376.999542 244.967697,374.871674 
	C245.006195,286.345306 245.009552,197.818939 244.952240,109.292610 
	C244.950668,106.857063 244.237106,104.421974 243.647949,101.488739 
	C243.773956,101.189606 243.899979,100.890472 243.294373,100.178421 
	C231.089813,99.997040 218.885391,99.801941 206.680252,99.677330 
	C206.106949,99.671478 205.527237,100.293442 205.018555,101.479607 
	C205.030106,170.618927 205.051529,239.758255 205.047943,308.897583 
	C205.046661,333.720245 204.985092,358.542877 205.681717,383.811066 
M255.131210,101.473145 
	C255.153320,123.190796 255.175430,144.908447 255.881622,167.016418 
	C258.491486,167.342194 261.097351,167.911209 263.711884,167.954437 
	C281.201935,168.243622 278.950958,165.805344 278.977905,183.534439 
	C279.057922,236.172058 278.986725,288.809906 279.062012,341.447540 
	C279.066193,344.375824 279.859680,347.302979 280.670502,350.843597 
	C284.853973,371.307953 299.226074,383.169220 320.116211,383.352570 
	C326.276550,383.406616 332.449371,383.130707 338.594482,383.441284 
	C342.763763,383.651978 343.949402,382.248596 343.906342,378.093170 
	C343.701019,358.280792 343.822784,338.465118 343.804565,318.650604 
	C343.802948,316.889069 343.631134,315.127625 343.511475,312.855438 
	C335.651642,312.855438 328.342865,312.855438 321.024170,311.936707 
	C321.021088,266.359344 321.008179,220.781967 321.025848,175.204605 
	C321.028412,168.581787 321.590759,168.180542 328.111450,167.967316 
	C333.061493,167.805450 338.002075,167.354507 343.439880,166.349701 
	C343.561188,165.701935 343.787781,165.054291 343.788513,164.406387 
	C343.811981,144.307373 343.829407,124.208298 343.779907,104.109398 
	C343.776794,102.849220 343.223663,101.590401 342.208099,99.924820 
	C340.428925,99.618164 338.650330,99.048538 336.870453,99.044449 
	C311.778595,98.986740 286.686432,98.965225 261.594940,99.077087 
	C259.379303,99.086975 257.168030,100.089859 255.131210,101.473145 
M395.721954,167.397766 
	C403.991272,168.958435 403.999664,168.958435 404.003632,177.383484 
	C404.010803,192.480957 403.960327,207.578720 404.054169,222.675613 
	C404.069336,225.114059 404.705444,227.548630 405.790161,230.363312 
	C418.370117,230.363312 430.950043,230.363312 443.702637,230.363312 
	C443.860840,228.924896 444.093231,227.795593 444.093384,226.666260 
	C444.097687,195.699646 444.107178,164.732971 444.043976,133.766464 
	C444.026642,125.270012 440.427338,118.130211 435.727051,111.210320 
	C422.454254,91.669724 381.379608,92.307014 367.921844,106.848892 
	C361.461670,113.829514 357.207123,121.570824 355.218475,130.734421 
	C354.813477,132.317978 354.058075,133.900848 354.054993,135.485199 
	C353.987488,170.089127 353.975098,204.693268 354.057709,239.297150 
	C354.064331,242.070862 354.836517,244.842758 355.773285,248.039597 
	C361.887360,274.345154 380.509338,281.901459 404.879211,279.917389 
	C404.879211,292.559204 404.879211,304.302124 404.879211,316.155701 
	C401.110748,316.155701 397.727844,316.155701 393.996796,316.155701 
	C393.996796,308.906616 393.857483,302.084290 394.056763,295.271881 
	C394.153534,291.963776 392.961243,290.967896 389.728088,291.023010 
	C379.733582,291.193268 369.732208,291.212280 359.738373,291.026367 
	C356.343842,290.963226 355.499420,292.280365 355.519043,295.411987 
	C355.630798,313.239838 355.472900,331.069794 355.643585,348.896759 
	C355.765564,361.634674 361.819733,371.391815 371.584351,379.192749 
	C381.161133,386.843689 392.349182,387.158417 403.841583,387.003876 
	C426.950623,386.693085 444.014679,369.918854 444.089447,346.919891 
	C444.160400,325.092590 444.158020,303.264709 444.089233,281.437408 
	C444.017029,258.526703 427.649414,242.186615 404.692780,241.982224 
	C401.270996,241.951767 397.848694,241.977982 394.372070,241.977982 
	C394.194519,240.150345 394.017487,239.172821 394.016602,238.195114 
	C393.996399,215.701111 393.980103,193.207047 394.033112,170.713165 
	C394.035919,169.514740 394.653137,168.317780 395.721954,167.397766 
M695.336182,382.511841 
	C695.336182,348.769348 695.336182,315.026855 695.336182,281.194122 
	C699.563171,281.194122 702.942261,281.194122 706.813660,281.194122 
	C706.813660,283.573639 706.810669,285.539093 706.814209,287.504547 
	C706.871033,319.463776 706.928711,351.422974 707.555847,383.831604 
	C708.628723,384.199127 709.699036,384.876740 710.774963,384.885956 
	C720.848999,384.972168 730.924927,385.004791 740.997986,384.876190 
	C742.345459,384.859039 743.680359,383.859344 745.107483,382.341156 
	C745.114136,358.355347 745.163696,334.369446 745.111267,310.383759 
	C745.080078,296.115570 741.654602,282.731934 734.655029,270.215851 
	C733.785645,268.661316 733.936890,265.751984 734.821228,264.126648 
	C741.064392,252.652588 744.982239,240.544052 745.041931,227.443314 
	C745.183044,196.462250 745.282715,165.478882 745.050110,134.499069 
	C744.920532,117.239136 733.594788,101.817169 716.786865,98.337570 
	C706.949890,96.301109 695.981934,96.047409 686.212769,98.169144 
	C668.595459,101.995415 659.514832,115.064758 656.150696,133.153503 
	C656.212952,134.485626 656.275146,135.817764 656.579712,137.961227 
	C656.497131,139.922165 656.414551,141.883118 655.942932,144.604538 
	C655.631836,146.721680 655.051575,148.838531 655.049255,150.955994 
	C654.997803,197.544403 654.993591,244.132935 655.066833,290.721283 
	C655.070068,292.788910 655.889526,294.855225 656.578979,297.730835 
	C656.494385,298.845154 656.409790,299.959473 655.931641,301.655945 
	C655.626099,303.264374 655.060364,304.871918 655.054993,306.481354 
	C654.994629,324.448059 654.981567,342.415283 655.080566,360.381683 
	C655.091125,362.304321 655.890625,364.222626 656.571533,366.986603 
	C656.490906,369.609253 656.410278,372.231934 656.072632,375.379822 
	C656.155457,376.295044 656.238342,377.210236 656.554871,378.803864 
	C656.473755,379.506439 656.392578,380.208984 656.296997,381.151550 
	C656.285034,381.390259 656.298157,381.628082 656.645874,382.346069 
	C656.751343,382.711090 656.856873,383.076141 657.544312,383.878204 
	C669.641235,384.025238 681.738159,384.180603 693.835449,384.283234 
	C694.239929,384.286682 694.648987,383.756989 695.336182,382.511841 
M556.029114,129.770752 
	C555.689575,131.710297 555.054565,133.649643 555.053162,135.589447 
	C555.002380,206.512558 554.995728,277.435730 555.079224,348.358734 
	C555.081848,350.569244 556.100769,352.778595 556.937073,355.608765 
	C562.247742,375.563965 577.056763,386.923859 597.792969,386.946442 
	C600.459229,386.949341 603.125793,386.965851 605.791687,386.934265 
	C627.376892,386.678650 644.758789,369.261749 644.861145,347.665497 
	C644.942444,330.501709 644.887512,313.337250 644.867432,296.173096 
	C644.865540,294.582275 644.678101,292.991669 644.576294,291.392822 
	C631.569275,291.392822 619.140747,291.392822 606.116455,291.392822 
	C606.116455,299.761078 606.116455,307.834656 606.116455,316.245422 
	C602.114685,316.245422 598.711914,316.245422 595.235413,316.245422 
	C595.235413,304.023529 595.235413,292.154144 595.235413,279.723022 
	C611.935059,279.723022 628.177551,279.723022 644.513794,279.723022 
	C644.513794,266.919525 644.513794,254.690475 644.513794,241.892975 
	C627.895691,241.892975 611.648804,241.892975 595.195923,241.892975 
	C595.195923,216.625946 595.195923,191.933975 595.195923,167.318207 
	C599.005188,167.318207 602.381042,167.318207 606.049744,167.318207 
	C606.049744,169.277145 606.049866,170.763931 606.049744,172.250717 
	C606.047974,190.248108 606.118530,208.246033 605.981628,226.242401 
	C605.955322,229.704468 607.011719,231.040436 610.541138,230.805389 
	C614.356873,230.551254 618.202820,230.751984 622.035583,230.752380 
	C629.478943,230.753174 636.922302,230.752625 644.448730,230.752625 
	C644.651306,229.227921 644.850220,228.427902 644.850464,227.627808 
	C644.860535,196.132446 644.961853,164.636246 644.716125,133.142761 
	C644.683289,128.942078 643.445679,124.517693 641.802917,120.600845 
	C631.856384,96.886040 596.601562,87.694923 574.042297,102.721680 
	C564.511963,109.069870 559.100403,118.128304 556.029114,129.770752 
z"/>
<path fill="#E3E5E5" opacity="1.000000" stroke="none" 
	d="
M556.462952,129.057770 
	C559.100403,118.128304 564.511963,109.069870 574.042297,102.721680 
	C596.601562,87.694923 631.856384,96.886040 641.802917,120.600845 
	C643.445679,124.517693 644.683289,128.942078 644.716125,133.142761 
	C644.961853,164.636246 644.860535,196.132446 644.850464,227.627808 
	C644.850220,228.427902 644.651306,229.227921 644.448730,230.752625 
	C636.922302,230.752625 629.478943,230.753174 622.035583,230.752380 
	C618.202820,230.751984 614.356873,230.551254 610.541138,230.805389 
	C607.011719,231.040436 605.955322,229.704468 605.981628,226.242401 
	C606.118530,208.246033 606.047974,190.248108 606.049744,172.250717 
	C606.049866,170.763931 606.049744,169.277145 606.049744,167.318207 
	C602.381042,167.318207 599.005188,167.318207 595.195923,167.318207 
	C595.195923,191.933975 595.195923,216.625946 595.195923,241.892975 
	C611.648804,241.892975 627.895691,241.892975 644.513794,241.892975 
	C644.513794,254.690475 644.513794,266.919525 644.513794,279.723022 
	C628.177551,279.723022 611.935059,279.723022 595.235413,279.723022 
	C595.235413,292.154144 595.235413,304.023529 595.235413,316.245422 
	C598.711914,316.245422 602.114685,316.245422 606.116455,316.245422 
	C606.116455,307.834656 606.116455,299.761078 606.116455,291.392822 
	C619.140747,291.392822 631.569275,291.392822 644.576294,291.392822 
	C644.678101,292.991669 644.865540,294.582275 644.867432,296.173096 
	C644.887512,313.337250 644.942444,330.501709 644.861145,347.665497 
	C644.758789,369.261749 627.376892,386.678650 605.791687,386.934265 
	C603.125793,386.965851 600.459229,386.949341 597.792969,386.946442 
	C577.056763,386.923859 562.247742,375.563965 556.775391,354.824677 
	C556.472046,351.054413 556.207825,348.068237 556.206787,345.082031 
	C556.182739,278.891693 556.180847,212.701370 556.199219,146.511032 
	C556.200806,140.693268 556.371094,134.875519 556.462952,129.057770 
z"/>
<path fill="#E4E5E5" opacity="1.000000" stroke="none" 
	d="
M656.325195,301.073792 
	C656.409790,299.959473 656.494385,298.845154 656.553223,296.874176 
	C656.553162,245.949158 656.579895,195.880798 656.593140,145.812439 
	C656.593323,145.156326 656.422852,144.500183 656.331970,143.844055 
	C656.414551,141.883118 656.497131,139.922165 656.562134,137.104004 
	C656.514465,134.988388 656.484314,133.729980 656.454102,132.471588 
	C659.514832,115.064758 668.595459,101.995415 686.212769,98.169144 
	C695.981934,96.047409 706.949890,96.301109 716.786865,98.337570 
	C733.594788,101.817169 744.920532,117.239136 745.050110,134.499069 
	C745.282715,165.478882 745.183044,196.462250 745.041931,227.443314 
	C744.982239,240.544052 741.064392,252.652588 734.821228,264.126648 
	C733.936890,265.751984 733.785645,268.661316 734.655029,270.215851 
	C741.654602,282.731934 745.080078,296.115570 745.111267,310.383759 
	C745.163696,334.369446 745.114136,358.355347 744.597900,382.866882 
	C731.720886,383.389099 719.353577,383.385651 706.986206,383.382202 
	C706.928711,351.422974 706.871033,319.463776 706.814209,287.504547 
	C706.810669,285.539093 706.813660,283.573639 706.813660,281.194122 
	C702.942261,281.194122 699.563171,281.194122 695.336182,281.194122 
	C695.336182,315.026855 695.336182,348.769348 694.724976,382.979675 
	C681.729980,383.445404 669.346191,383.443268 656.962402,383.441162 
	C656.856873,383.076141 656.751343,382.711090 656.544861,381.866058 
	C656.443848,381.386047 656.311462,380.911560 656.311401,380.911560 
	C656.392578,380.208984 656.473755,379.506439 656.539062,378.062439 
	C656.458740,376.498840 656.394165,375.676727 656.329590,374.854584 
	C656.410278,372.231934 656.490906,369.609253 656.550781,366.162445 
	C656.461792,343.916779 656.393494,322.495300 656.325195,301.073792 
M706.863220,216.500031 
	C706.861511,203.033127 706.862061,189.566208 706.857300,176.099304 
	C706.854004,166.575577 706.850464,166.569992 697.415405,167.165543 
	C696.956970,167.194473 696.514099,167.470749 695.912415,167.686096 
	C695.912415,192.341278 695.912415,216.970505 695.912415,241.935989 
	C698.058411,241.935989 699.734192,241.739502 701.347473,241.973724 
	C705.765808,242.615189 707.196472,240.858459 706.951111,236.448471 
	C706.600708,230.150192 706.862671,223.817825 706.863220,216.500031 
z"/>
<path fill="#E4E5E5" opacity="1.000000" stroke="none" 
	d="
M355.576996,130.851212 
	C357.207123,121.570824 361.461670,113.829514 367.921844,106.848892 
	C381.379608,92.307014 422.454254,91.669724 435.727051,111.210320 
	C440.427338,118.130211 444.026642,125.270012 444.043976,133.766464 
	C444.107178,164.732971 444.097687,195.699646 444.093384,226.666260 
	C444.093231,227.795593 443.860840,228.924896 443.702637,230.363312 
	C430.950043,230.363312 418.370117,230.363312 405.471985,229.708923 
	C405.153809,208.444611 405.153809,187.834702 405.153809,167.120132 
	C401.229156,167.120132 398.106750,167.120132 394.984344,167.120132 
	C394.653137,168.317780 394.035919,169.514740 394.033112,170.713165 
	C393.980103,193.207047 393.996399,215.701111 394.016602,238.195114 
	C394.017487,239.172821 394.194519,240.150345 394.372070,241.977982 
	C397.848694,241.977982 401.270996,241.951767 404.692780,241.982224 
	C427.649414,242.186615 444.017029,258.526703 444.089233,281.437408 
	C444.158020,303.264709 444.160400,325.092590 444.089447,346.919891 
	C444.014679,369.918854 426.950623,386.693085 403.841583,387.003876 
	C392.349182,387.158417 381.161133,386.843689 371.584351,379.192749 
	C361.819733,371.391815 355.765564,361.634674 355.643585,348.896759 
	C355.472900,331.069794 355.630798,313.239838 355.519043,295.411987 
	C355.499420,292.280365 356.343842,290.963226 359.738373,291.026367 
	C369.732208,291.212280 379.733582,291.193268 389.728088,291.023010 
	C392.961243,290.967896 394.153534,291.963776 394.056763,295.271881 
	C393.857483,302.084290 393.996796,308.906616 393.996796,316.155701 
	C397.727844,316.155701 401.110748,316.155701 404.879211,316.155701 
	C404.879211,304.302124 404.879211,292.559204 404.879211,279.917389 
	C380.509338,281.901459 361.887360,274.345154 355.685760,247.353271 
	C355.591156,208.061691 355.584076,169.456451 355.576996,130.851212 
z"/>
<path fill="#E4E5E5" opacity="1.000000" stroke="none" 
	d="
M193.043488,100.662094 
	C193.099045,131.264694 193.161942,161.867264 193.206299,192.469879 
	C193.222214,203.447739 193.203278,214.425690 193.174194,225.403519 
	C193.169922,227.018280 193.020645,228.632660 192.923660,230.537781 
	C180.303772,230.537781 168.070312,230.537781 155.038040,230.537781 
	C155.038040,209.498718 155.038040,188.511337 155.038040,166.979950 
	C151.474716,166.979950 148.699539,166.979950 145.065765,167.213989 
	C144.020050,168.581482 143.671051,169.714722 143.669662,170.848389 
	C143.641968,193.469345 143.646255,216.090363 143.683624,238.711304 
	C143.685425,239.803345 144.049988,240.894791 144.298721,242.282883 
	C160.663422,242.282883 176.777573,242.282883 192.891708,242.282883 
	C192.891708,254.979126 192.891708,267.675385 192.891708,281.018524 
	C177.014450,281.018524 161.485687,281.018524 145.074158,281.224304 
	C144.012650,282.399445 143.677460,283.368866 143.677795,284.338196 
	C143.689270,317.169678 143.732635,350.001190 143.771378,382.832672 
	C143.596252,382.942596 143.421112,383.052551 142.599350,383.332184 
	C129.625427,383.463196 117.298134,383.424561 104.970848,383.385956 
	C104.970848,383.385956 104.939171,383.119995 104.824371,382.597748 
	C104.705956,291.233093 104.704041,200.390671 104.689842,109.548256 
	C104.689453,107.056717 104.557030,104.565201 104.486168,102.073669 
	C104.585434,101.838020 104.684692,101.602364 105.343285,100.972733 
	C134.949570,100.606537 163.996536,100.634308 193.043488,100.662094 
z"/>
<path fill="#E3E4E4" opacity="1.000000" stroke="none" 
	d="
M321.034119,312.855438 
	C328.342865,312.855438 335.651642,312.855438 343.511475,312.855438 
	C343.631134,315.127625 343.802948,316.889069 343.804565,318.650604 
	C343.822784,338.465118 343.701019,358.280792 343.906342,378.093170 
	C343.949402,382.248596 342.763763,383.651978 338.594482,383.441284 
	C332.449371,383.130707 326.276550,383.406616 320.116211,383.352570 
	C299.226074,383.169220 284.853973,371.307953 280.512207,350.046021 
	C280.353943,288.648010 280.353943,228.047546 280.353943,166.626099 
	C271.434113,166.626099 263.315826,166.626099 255.197540,166.626099 
	C255.175430,144.908447 255.153320,123.190796 255.519379,101.068253 
	C258.061584,100.626930 260.215576,100.564476 262.369720,100.558029 
	C289.221954,100.477615 316.074158,100.405327 342.926392,100.330956 
	C343.223663,101.590401 343.776794,102.849220 343.779907,104.109398 
	C343.829407,124.208298 343.811981,144.307373 343.788513,164.406387 
	C343.787781,165.054291 343.561188,165.701935 342.732910,166.640472 
	C334.765076,166.931244 327.504211,166.931244 320.089752,166.931244 
	C319.917328,168.468979 319.714966,169.433029 319.714569,170.397125 
	C319.696167,216.612503 319.684570,262.827881 319.748596,309.043182 
	C319.750366,310.314545 320.586853,311.584717 321.034119,312.855438 
z"/>
<path fill="#E4E5E5" opacity="1.000000" stroke="none" 
	d="
M489.968597,370.076752 
	C489.888000,369.743713 489.715546,369.468201 489.160706,368.838470 
	C488.371826,367.827057 487.873413,367.227356 487.375000,366.627655 
	C487.375000,366.627655 487.316437,366.784485 487.311157,366.507324 
	C486.932526,365.745056 486.559174,365.259979 486.185791,364.774933 
	C486.185791,364.774933 486.148102,364.897919 486.152130,364.614319 
	C485.811646,363.838226 485.467102,363.345734 485.122589,362.853271 
	C485.122589,362.853271 485.078674,362.935394 485.053101,362.614258 
	C484.721039,361.961426 484.414551,361.629669 484.108032,361.297943 
	C484.108032,361.297943 484.288635,361.147736 484.190247,360.657166 
	C483.034912,355.779236 481.977936,351.391876 480.920959,347.004517 
	C480.940674,287.659515 480.960419,228.314514 480.766937,168.102020 
	C472.503754,167.234512 464.453796,167.234512 456.376038,167.234512 
	C456.120697,163.599701 455.958466,161.290512 455.796265,158.981323 
	C455.836487,143.972763 455.876709,128.964203 455.936035,113.113708 
	C455.899475,111.503326 455.843811,110.734894 455.788116,109.966461 
	C455.827972,109.231728 455.867859,108.496986 455.934387,106.973907 
	C455.960571,104.461601 455.960114,102.737640 455.959686,101.013680 
	C455.959686,101.013680 456.065369,100.906586 456.478271,100.786713 
	C484.788910,100.632530 512.686707,100.588043 540.584473,100.592613 
	C542.049500,100.592857 543.514343,101.009560 544.979309,101.232368 
	C544.979309,101.232368 545.063354,100.998947 544.890503,101.436157 
	C544.762817,123.274742 544.807922,144.676117 544.853027,166.077484 
	C544.853027,166.077484 544.784302,166.283005 544.416626,166.414734 
	C537.901306,166.624130 531.736633,167.012390 525.611633,166.676407 
	C521.108337,166.429382 520.057434,168.005188 520.071411,172.313095 
	C520.217468,217.377869 520.158813,262.443298 520.176208,307.508545 
	C520.176880,309.264496 520.371643,311.020386 520.491699,313.041473 
	C528.703430,313.041473 536.337280,313.041473 543.971130,313.041473 
	C543.971130,313.041473 544.227905,313.153320 544.379272,313.527832 
	C544.627136,336.965027 544.723572,360.027710 544.820007,383.090393 
	C544.820007,383.090393 544.963867,382.863312 544.418945,382.931213 
	C532.562622,382.806519 521.251221,382.613953 509.939880,382.421387 
	C509.507568,382.270935 509.075287,382.120483 508.018860,381.760681 
	C505.659637,380.912231 503.924530,380.273132 502.189453,379.634033 
	C502.189453,379.634033 502.193878,379.734375 502.037720,379.495880 
	C501.303680,379.021332 500.725800,378.785278 500.147919,378.549225 
	C500.147919,378.549225 500.134766,378.798309 500.111084,378.557739 
	C499.742706,378.172089 499.398071,378.027008 499.053406,377.881958 
	C499.053406,377.881958 499.052002,377.946503 498.886841,377.688171 
	C498.168182,377.178802 497.614624,376.927765 497.061096,376.676697 
	C497.061096,376.676697 497.045258,376.912872 497.044434,376.654724 
	C496.718353,376.202728 496.393036,376.008850 496.067749,375.815002 
	C495.937714,375.523651 495.731293,375.304138 495.082794,374.818207 
	C494.220276,374.149658 493.723419,373.819336 493.226532,373.489044 
	C493.226532,373.489044 493.183014,373.759857 493.193359,373.493042 
	C492.863007,373.002380 492.522308,372.778564 492.181641,372.554718 
	C492.181641,372.554718 492.195465,372.813721 492.198883,372.519104 
	C491.861938,372.001190 491.521606,371.777893 491.181244,371.554596 
	C491.181244,371.554596 491.239624,371.815521 491.247864,371.517578 
	C490.826935,370.838654 490.397766,370.457703 489.968597,370.076752 
z"/>
<path fill="#E2E4E4" opacity="1.000000" stroke="none" 
	d="
M244.026001,100.591347 
	C243.899979,100.890472 243.773956,101.189606 243.655457,102.196281 
	C243.634430,104.401016 243.580994,105.898201 243.580948,107.395393 
	C243.578629,196.772568 243.578842,286.149750 243.593567,375.526917 
	C243.593918,377.683960 243.760559,379.841003 243.849655,381.998047 
	C243.622681,382.499878 243.395721,383.001709 242.864899,383.542572 
	C230.024368,383.509583 217.487686,383.437592 204.951019,383.365540 
	C204.985092,358.542877 205.046661,333.720245 205.047943,308.897583 
	C205.051529,239.758255 205.030106,170.618927 205.461487,101.041199 
	C218.611618,100.598976 231.318817,100.595161 244.026001,100.591347 
z"/>
<path fill="#4A807C" opacity="1.000000" stroke="none" 
	d="
M104.270348,102.355515 
	C104.557030,104.565201 104.689453,107.056717 104.689842,109.548256 
	C104.704041,200.390671 104.705956,291.233093 104.703239,382.540649 
	C104.135696,380.989655 103.085434,378.973969 103.083580,376.957306 
	C103.001114,287.277832 103.005005,197.598267 103.053375,107.918747 
	C103.054329,106.158112 103.706291,104.397812 104.270348,102.355515 
z"/>
<path fill="#65918E" opacity="1.000000" stroke="none" 
	d="
M543.598145,312.875153 
	C536.337280,313.041473 528.703430,313.041473 520.491699,313.041473 
	C520.371643,311.020386 520.176880,309.264496 520.176208,307.508545 
	C520.158813,262.443298 520.217468,217.377869 520.071411,172.313095 
	C520.057434,168.005188 521.108337,166.429382 525.611633,166.676407 
	C531.736633,167.012390 537.901306,166.624130 544.519409,166.449158 
	C540.110840,166.871979 535.241577,167.683960 530.350708,167.846252 
	C522.310120,168.113068 521.908875,168.306427 521.907593,176.364197 
	C521.900940,218.772263 521.901917,261.180328 521.915161,303.588379 
	C521.917664,311.718475 522.248291,311.950012 530.323608,312.071747 
	C534.626343,312.136566 538.924805,312.487213 543.598145,312.875153 
z"/>
<path fill="#4A807C" opacity="1.000000" stroke="none" 
	d="
M656.137451,144.224304 
	C656.422852,144.500183 656.593323,145.156326 656.593140,145.812439 
	C656.579895,195.880798 656.553162,245.949158 656.428101,296.469849 
	C655.889526,294.855225 655.070068,292.788910 655.066833,290.721283 
	C654.993591,244.132935 654.997803,197.544403 655.049255,150.955994 
	C655.051575,148.838531 655.631836,146.721680 656.137451,144.224304 
z"/>
<path fill="#4A807C" opacity="1.000000" stroke="none" 
	d="
M244.028503,381.626526 
	C243.760559,379.841003 243.593918,377.683960 243.593567,375.526917 
	C243.578842,286.149750 243.578629,196.772568 243.580948,107.395393 
	C243.580994,105.898201 243.634430,104.401016 243.759247,102.445251 
	C244.237106,104.421974 244.950668,106.857063 244.952240,109.292610 
	C245.009552,197.818939 245.006195,286.345306 244.967697,374.871674 
	C244.966782,376.999542 244.471848,379.127197 244.028503,381.626526 
z"/>
<path fill="#4A807C" opacity="1.000000" stroke="none" 
	d="
M355.397736,130.792816 
	C355.584076,169.456451 355.591156,208.061691 355.425598,247.141205 
	C354.836517,244.842758 354.064331,242.070862 354.057709,239.297150 
	C353.975098,204.693268 353.987488,170.089127 354.054993,135.485199 
	C354.058075,133.900848 354.813477,132.317978 355.397736,130.792816 
z"/>
<path fill="#4A807C" opacity="1.000000" stroke="none" 
	d="
M556.246033,129.414261 
	C556.371094,134.875519 556.200806,140.693268 556.199219,146.511032 
	C556.180847,212.701370 556.182739,278.891693 556.206787,345.082031 
	C556.207825,348.068237 556.472046,351.054413 556.629883,354.514526 
	C556.100769,352.778595 555.081848,350.569244 555.079224,348.358734 
	C554.995728,277.435730 555.002380,206.512558 555.053162,135.589447 
	C555.054565,133.649643 555.689575,131.710297 556.246033,129.414261 
z"/>
<path fill="#4A807C" opacity="1.000000" stroke="none" 
	d="
M255.539581,166.821259 
	C263.315826,166.626099 271.434113,166.626099 280.353943,166.626099 
	C280.353943,228.047546 280.353943,288.648010 280.319885,349.739563 
	C279.859680,347.302979 279.066193,344.375824 279.062012,341.447540 
	C278.986725,288.809906 279.057922,236.172058 278.977905,183.534439 
	C278.950958,165.805344 281.201935,168.243622 263.711884,167.954437 
	C261.097351,167.911209 258.491486,167.342194 255.539581,166.821259 
z"/>
<path fill="#4A807C" opacity="1.000000" stroke="none" 
	d="
M544.721252,100.942123 
	C543.514343,101.009560 542.049500,100.592857 540.584473,100.592613 
	C512.686707,100.588043 484.788910,100.632530 456.424744,100.733826 
	C457.960663,100.201340 459.960693,99.089203 461.965698,99.080093 
	C487.621796,98.963562 513.278748,98.971100 538.934937,99.077019 
	C540.779846,99.084641 542.620544,100.103302 544.721252,100.942123 
z"/>
<path fill="#4A807C" opacity="1.000000" stroke="none" 
	d="
M192.755692,100.433395 
	C163.996536,100.634308 134.949570,100.606537 105.433891,100.600021 
	C106.988113,100.080658 109.009109,99.078133 111.034302,99.069572 
	C136.273697,98.962982 161.513763,98.974754 186.753357,99.053230 
	C188.659378,99.059151 190.563110,99.803574 192.755692,100.433395 
z"/>
<path fill="#4A807C" opacity="1.000000" stroke="none" 
	d="
M321.029144,312.396057 
	C320.586853,311.584717 319.750366,310.314545 319.748596,309.043182 
	C319.684570,262.827881 319.696167,216.612503 319.714569,170.397125 
	C319.714966,169.433029 319.917328,168.468979 320.089752,166.931244 
	C327.504211,166.931244 334.765076,166.931244 342.486389,166.981720 
	C338.002075,167.354507 333.061493,167.805450 328.111450,167.967316 
	C321.590759,168.180542 321.028412,168.581787 321.025848,175.204605 
	C321.008179,220.781967 321.021088,266.359344 321.029144,312.396057 
z"/>
<path fill="#4A807C" opacity="1.000000" stroke="none" 
	d="
M656.128418,301.364868 
	C656.393494,322.495300 656.461792,343.916779 656.427124,365.740631 
	C655.890625,364.222626 655.091125,362.304321 655.080566,360.381683 
	C654.981567,342.415283 654.994629,324.448059 655.054993,306.481354 
	C655.060364,304.871918 655.626099,303.264374 656.128418,301.364868 
z"/>
<path fill="#4A807C" opacity="1.000000" stroke="none" 
	d="
M192.533707,242.088120 
	C176.777573,242.282883 160.663422,242.282883 144.298721,242.282883 
	C144.049988,240.894791 143.685425,239.803345 143.683624,238.711304 
	C143.646255,216.090363 143.641968,193.469345 143.669662,170.848389 
	C143.671051,169.714722 144.020050,168.581482 144.619720,167.294724 
	C145.024033,189.275940 145.000900,211.410492 145.016327,233.545013 
	C145.021164,240.467163 145.509186,240.950256 152.374298,240.972290 
	C163.524689,241.008087 174.675613,240.941666 185.825409,241.031860 
	C187.944366,241.049011 190.059052,241.592651 192.533707,242.088120 
z"/>
<path fill="#4A807C" opacity="1.000000" stroke="none" 
	d="
M143.959869,382.479980 
	C143.732635,350.001190 143.689270,317.169678 143.677795,284.338196 
	C143.677460,283.368866 144.012650,282.399445 144.612579,281.297028 
	C145.024261,312.371521 145.033875,343.579041 144.968338,374.786438 
	C144.963196,377.233978 144.434006,379.680359 143.959869,382.479980 
z"/>
<path fill="#4A807C" opacity="1.000000" stroke="none" 
	d="
M342.567261,100.127884 
	C316.074158,100.405327 289.221954,100.477615 262.369720,100.558029 
	C260.215576,100.564476 258.061584,100.626930 255.431122,100.647446 
	C257.168030,100.089859 259.379303,99.086975 261.594940,99.077087 
	C286.686432,98.965225 311.778595,98.986740 336.870453,99.044449 
	C338.650330,99.048538 340.428925,99.618164 342.567261,100.127884 
z"/>
<path fill="#4A807C" opacity="1.000000" stroke="none" 
	d="
M105.257431,383.609344 
	C117.298134,383.424561 129.625427,383.463196 142.401825,383.571320 
	C142.716858,383.738892 142.582642,383.923035 142.448746,383.922791 
	C130.147156,383.901886 117.845589,383.866852 105.257431,383.609344 
z"/>
<path fill="#4A807C" opacity="1.000000" stroke="none" 
	d="
M657.253357,383.659668 
	C669.346191,383.443268 681.729980,383.445404 694.584839,383.461670 
	C694.648987,383.756989 694.239929,384.286682 693.835449,384.283234 
	C681.738159,384.180603 669.641235,384.025238 657.253357,383.659668 
z"/>
<path fill="#4A807C" opacity="1.000000" stroke="none" 
	d="
M707.270996,383.606903 
	C719.353577,383.385651 731.720886,383.389099 744.554688,383.353638 
	C743.680359,383.859344 742.345459,384.859039 740.997986,384.876190 
	C730.924927,385.004791 720.848999,384.972168 710.774963,384.885956 
	C709.699036,384.876740 708.628723,384.199127 707.270996,383.606903 
z"/>
<path fill="#4A807C" opacity="1.000000" stroke="none" 
	d="
M395.353149,167.258942 
	C398.106750,167.120132 401.229156,167.120132 405.153809,167.120132 
	C405.153809,187.834702 405.153809,208.444611 405.104156,229.519760 
	C404.705444,227.548630 404.069336,225.114059 404.054169,222.675613 
	C403.960327,207.578720 404.010803,192.480957 404.003632,177.383484 
	C403.999664,168.958435 403.991272,168.958435 395.353149,167.258942 
z"/>
<path fill="#4A807C" opacity="1.000000" stroke="none" 
	d="
M544.985291,382.699036 
	C544.723572,360.027710 544.627136,336.965027 544.478821,313.429260 
	C544.948120,315.008850 545.909790,317.058899 545.921936,319.114532 
	C546.036560,338.555481 546.009460,357.997437 545.952759,377.438904 
	C545.948059,379.062592 545.430115,380.684784 544.985291,382.699036 
z"/>
<path fill="#65918E" opacity="1.000000" stroke="none" 
	d="
M510.178436,382.669617 
	C521.251221,382.613953 532.562622,382.806519 544.305298,382.859314 
	C543.520020,383.417999 542.312561,384.701477 541.085144,384.720978 
	C532.373352,384.859589 523.655640,384.823273 514.944885,384.622345 
	C513.423340,384.587219 511.925690,383.512421 510.178436,382.669617 
z"/>
<path fill="#4A807C" opacity="1.000000" stroke="none" 
	d="
M545.025330,165.694305 
	C544.807922,144.676117 544.762817,123.274742 544.773804,101.394089 
	C545.216492,102.844803 545.929443,104.773232 545.938660,106.705025 
	C546.024170,124.616524 546.008606,142.528656 545.953308,160.440399 
	C545.948303,162.064743 545.460999,163.687592 545.025330,165.694305 
z"/>
<path fill="#65918E" opacity="1.000000" stroke="none" 
	d="
M455.551270,159.225006 
	C455.958466,161.290512 456.120697,163.599701 456.376038,167.234512 
	C464.453796,167.234512 472.503754,167.234512 480.721375,167.637878 
	C474.078644,167.992203 467.266357,168.024918 460.458374,167.869553 
	C454.467194,167.732864 453.077576,165.363800 455.551270,159.225006 
z"/>
<path fill="#4A807C" opacity="1.000000" stroke="none" 
	d="
M243.660187,100.384888 
	C231.318817,100.595161 218.611618,100.598976 205.427475,100.612915 
	C205.527237,100.293442 206.106949,99.671478 206.680252,99.677330 
	C218.885391,99.801941 231.089813,99.997040 243.660187,100.384888 
z"/>
<path fill="#4A807C" opacity="1.000000" stroke="none" 
	d="
M205.316376,383.588318 
	C217.487686,383.437592 230.024368,383.509583 243.056488,383.745300 
	C230.928543,383.876343 218.305130,383.843719 205.316376,383.588318 
z"/>
<path fill="#65918E" opacity="1.000000" stroke="none" 
	d="
M480.791138,347.354309 
	C481.977936,351.391876 483.034912,355.779236 484.135803,360.553101 
	C483.006927,356.527771 481.834137,352.115936 480.791138,347.354309 
z"/>
<path fill="#65918E" opacity="1.000000" stroke="none" 
	d="
M455.742126,101.157288 
	C455.960114,102.737640 455.960571,104.461601 455.875305,106.609558 
	C455.701233,105.122658 455.612885,103.211777 455.742126,101.157288 
z"/>
<path fill="#65918E" opacity="1.000000" stroke="none" 
	d="
M502.365509,379.906250 
	C503.924530,380.273132 505.659637,380.912231 507.674652,381.741150 
	C506.150238,381.346832 504.345917,380.762665 502.365509,379.906250 
z"/>
<path fill="#65918E" opacity="1.000000" stroke="none" 
	d="
M455.595825,110.115601 
	C455.843811,110.734894 455.899475,111.503326 455.873718,112.650558 
	C455.662659,112.107819 455.533081,111.186279 455.595825,110.115601 
z"/>
<path fill="#65918E" opacity="1.000000" stroke="none" 
	d="
M487.454041,366.916931 
	C487.873413,367.227356 488.371826,367.827057 488.948181,368.712311 
	C488.528473,368.400635 488.030762,367.803406 487.454041,366.916931 
z"/>
<path fill="#4A807C" opacity="1.000000" stroke="none" 
	d="
M656.302429,132.812546 
	C656.484314,133.729980 656.514465,134.988388 656.441040,136.698334 
	C656.275146,135.817764 656.212952,134.485626 656.302429,132.812546 
z"/>
<path fill="#4A807C" opacity="1.000000" stroke="none" 
	d="
M656.201111,375.117188 
	C656.394165,375.676727 656.458740,376.498840 656.422241,377.723206 
	C656.238342,377.210236 656.155457,376.295044 656.201111,375.117188 
z"/>
<path fill="#65918E" opacity="1.000000" stroke="none" 
	d="
M497.287506,376.878174 
	C497.614624,376.927765 498.168182,377.178802 498.912231,377.668213 
	C498.573120,377.630920 498.043518,377.355286 497.287506,376.878174 
z"/>
<path fill="#65918E" opacity="1.000000" stroke="none" 
	d="
M500.380432,378.756958 
	C500.725800,378.785278 501.303680,379.021332 502.087891,379.493591 
	C501.733795,379.474762 501.173370,379.219727 500.380432,378.756958 
z"/>
<path fill="#65918E" opacity="1.000000" stroke="none" 
	d="
M485.211304,363.139374 
	C485.467102,363.345734 485.811646,363.838226 486.213623,364.633118 
	C485.947418,364.432190 485.623688,363.928833 485.211304,363.139374 
z"/>
<path fill="#65918E" opacity="1.000000" stroke="none" 
	d="
M493.409424,373.725739 
	C493.723419,373.819336 494.220276,374.149658 494.867737,374.738342 
	C494.542969,374.651947 494.067627,374.307190 493.409424,373.725739 
z"/>
<path fill="#65918E" opacity="1.000000" stroke="none" 
	d="
M490.106140,370.327759 
	C490.397766,370.457703 490.826935,370.838654 491.378296,371.488312 
	C491.081543,371.364258 490.662598,370.971497 490.106140,370.327759 
z"/>
<path fill="#65918E" opacity="1.000000" stroke="none" 
	d="
M486.289581,365.063171 
	C486.559174,365.259979 486.932526,365.745056 487.389587,366.536499 
	C487.113342,366.345703 486.753357,365.848541 486.289581,365.063171 
z"/>
<path fill="#65918E" opacity="1.000000" stroke="none" 
	d="
M499.257050,378.059998 
	C499.398071,378.027008 499.742706,378.172089 500.235596,378.564240 
	C500.076111,378.620239 499.768402,378.429138 499.257050,378.059998 
z"/>
<path fill="#65918E" opacity="1.000000" stroke="none" 
	d="
M496.251160,376.019775 
	C496.393036,376.008850 496.718353,376.202728 497.162537,376.662598 
	C496.999115,376.693939 496.716858,376.459259 496.251160,376.019775 
z"/>
<path fill="#4A807C" opacity="1.000000" stroke="none" 
	d="
M656.304199,381.031555 
	C656.311462,380.911560 656.443848,381.386047 656.390137,381.625519 
	C656.298157,381.628082 656.285034,381.390259 656.304199,381.031555 
z"/>
<path fill="#65918E" opacity="1.000000" stroke="none" 
	d="
M484.273193,361.584106 
	C484.414551,361.629669 484.721039,361.961426 485.094177,362.636200 
	C484.920013,362.609589 484.679169,362.239929 484.273193,361.584106 
z"/>
<path fill="#65918E" opacity="1.000000" stroke="none" 
	d="
M492.379089,372.776947 
	C492.522308,372.778564 492.863007,373.002380 493.328766,373.514740 
	C493.161438,373.535217 492.868988,373.267212 492.379089,372.776947 
z"/>
<path fill="#65918E" opacity="1.000000" stroke="none" 
	d="
M491.378662,371.776489 
	C491.521606,371.777893 491.861938,372.001190 492.328369,372.512115 
	C492.161652,372.532623 491.868835,372.265533 491.378662,371.776489 
z"/>
<path fill="#57918C" opacity="1.000000" stroke="none" 
	d="
M706.863159,217.000031 
	C706.862671,223.817825 706.600708,230.150192 706.951111,236.448471 
	C707.196472,240.858459 705.765808,242.615189 701.347473,241.973724 
	C699.734192,241.739502 698.058411,241.935989 695.912415,241.935989 
	C695.912415,216.970505 695.912415,192.341278 695.912415,167.686096 
	C696.514099,167.470749 696.956970,167.194473 697.415405,167.165543 
	C706.850464,166.569992 706.854004,166.575577 706.857300,176.099304 
	C706.862061,189.566208 706.861511,203.033127 706.863159,217.000031 
z"/>
    </g>
</svg>